<mxfile host="app.diagrams.net" modified="2024-01-24T15:23:47.908Z" agent="Mozilla/5.0 (Macintosh; Intel Mac OS X 10_15_7) AppleWebKit/605.1.15 (KHTML, like Gecko) Version/17.2 Safari/605.1.15" version="23.0.1" etag="GcHjm2qOn2Mbr0cpiWrh" type="github">
  <diagram name="Page-1" id="aMfOxxfjvvaeXha-RKJ4">
    <mxGraphModel>
      <root>
        <mxCell id="0" />
        <mxCell id="1" parent="0" />
      </root>
    </mxGraphModel>
  </diagram>
</mxfile>
